# xmcd
#
# Track frame offsets: 
#        150
#        22582
#        44742
#        63265
#        83042
#        105085
#        132265
#        147382
#        168032
#        181175
#
# Disc length: 2729 seconds
#
# Revision: 0
# Processed by: cddbd v1.5.1PL2 Copyright (c) Steve Scherf et al.
# Submitted via: ExactAudioCopy v0.95b3
#
DISCID=720aa70a
DTITLE=Marvin Gaye - Legendary
DYEAR=1997
DGENRE=soul
TTITLE0='Til Tomorrow
TTITLE1=My Love is Waiting
TTITLE2=Just Like
TTITLE3=Joy
TTITLE4=Ain't It Funny (How Things Turn Around)
TTITLE5=Rockin' After Midnight
TTITLE6=Savage In The Sack
TTITLE7=Third World Girl
TTITLE8=Walking' In The Rain
TTITLE9=Midnight Lady
EXTD=
EXTT0=
EXTT1=
EXTT2=
EXTT3=
EXTT4=
EXTT5=
EXTT6=
EXTT7=
EXTT8=
EXTT9=
PLAYORDER=
